<?xml version="1.0" encoding="utf-8"?>
<!-- Generator: Adobe Illustrator 16.0.0, SVG Export Plug-In . SVG Version: 6.00 Build 0)  -->
<!DOCTYPE svg PUBLIC "-//W3C//DTD SVG 1.1//EN" "http://www.w3.org/Graphics/SVG/1.1/DTD/svg11.dtd">
<svg version="1.1" id="Layer_1" xmlns="http://www.w3.org/2000/svg" xmlns:xlink="http://www.w3.org/1999/xlink" x="0px" y="0px"
	 width="3000px" height="2000px" viewBox="0 0 3000 2000" enable-background="new 0 0 3000 2000" xml:space="preserve">
<g>
	<g>
		<path fill="#6FCCDD" d="M983.67,1282.301h-44.894l-5.342,12.371c-1.75,4.124-2.625,7.53-2.625,10.217
			c0,3.562,1.437,6.186,4.312,7.873c1.687,1,5.842,1.749,12.465,2.249v3.468h-42.27v-3.468c4.561-0.688,8.31-2.577,11.247-5.671
			c2.937-3.092,6.561-9.48,10.872-19.166l45.457-101.411h1.781l45.832,104.223c4.373,9.873,7.967,16.09,10.778,18.651
			c2.124,1.938,5.123,3.062,8.998,3.374v3.468h-61.483v-3.468h2.53c4.936,0,8.403-0.688,10.404-2.063
			c1.374-0.999,2.062-2.437,2.062-4.311c0-1.125-0.188-2.28-0.563-3.468c-0.126-0.563-1.063-2.906-2.812-7.029L983.67,1282.301z
			 M980.484,1275.365l-18.933-43.77l-19.495,43.77H980.484z"/>
		<path fill="#6FCCDD" d="M1184.737,1273.865l-4.78,44.613h-112.845v-3.468h4.218c3.686,0,6.654-0.656,8.903-1.969
			c1.625-0.874,2.874-2.374,3.749-4.498c0.687-1.5,1.031-5.437,1.031-11.81v-83.603c0-6.498-0.344-10.56-1.031-12.185
			c-0.688-1.624-2.077-3.047-4.17-4.265c-2.094-1.219-4.921-1.827-8.482-1.827h-4.218v-3.468h67.763v3.468h-5.529
			c-3.688,0-6.655,0.656-8.904,1.968c-1.625,0.876-2.905,2.375-3.842,4.499c-0.688,1.5-1.031,5.436-1.031,11.81v80.979
			c0,6.499,0.375,10.638,1.125,12.418c0.75,1.781,2.218,3.109,4.405,3.983c1.562,0.563,5.342,0.844,11.341,0.844h10.591
			c6.748,0,12.372-1.187,16.871-3.562c4.499-2.374,8.389-6.123,11.669-11.247c3.28-5.123,6.388-12.684,9.325-22.682H1184.737z"/>
		<path fill="#6FCCDD" d="M1316.166,1191.388v34.396h-3.375c-2-7.935-4.217-13.638-6.654-17.105s-5.78-6.231-10.029-8.294
			c-2.375-1.125-6.53-1.687-12.465-1.687h-9.466v98.036c0,6.499,0.358,10.56,1.078,12.184c0.718,1.626,2.124,3.046,4.217,4.266
			c2.093,1.217,4.952,1.827,8.577,1.827h4.217v3.468h-66.544v-3.468h4.218c3.686,0,6.654-0.656,8.904-1.969
			c1.624-0.874,2.905-2.374,3.843-4.498c0.687-1.5,1.031-5.437,1.031-11.81v-98.036h-9.185c-8.561,0-14.777,1.813-18.651,5.436
			c-5.436,5.062-8.873,12.278-10.31,21.65h-3.562v-34.396H1316.166z"/>
		<path fill="#6FCCDD" d="M1409.823,1282.301h-44.894l-5.342,12.371c-1.75,4.124-2.625,7.53-2.625,10.217
			c0,3.562,1.437,6.186,4.312,7.873c1.687,1,5.842,1.749,12.465,2.249v3.468h-42.27v-3.468c4.561-0.688,8.31-2.577,11.247-5.671
			c2.937-3.092,6.561-9.48,10.872-19.166l45.457-101.411h1.781l45.831,104.223c4.373,9.873,7.968,16.09,10.779,18.651
			c2.124,1.938,5.123,3.062,8.998,3.374v3.468h-61.484v-3.468h2.531c4.936,0,8.403-0.688,10.403-2.063
			c1.374-0.999,2.062-2.437,2.062-4.311c0-1.125-0.188-2.28-0.563-3.468c-0.125-0.563-1.063-2.906-2.812-7.029L1409.823,1282.301z
			 M1406.637,1275.365l-18.933-43.77l-19.495,43.77H1406.637z"/>
		<path fill="#6FCCDD" d="M1569.649,1240.03l44.708,55.954c6.31,7.873,11.746,13.215,16.309,16.027c3.31,2,6.81,2.999,10.497,2.999
			v3.468h-66.17v-3.468c4.186-0.375,6.89-1.031,8.106-1.969c1.22-0.937,1.828-2.093,1.828-3.468c0-2.624-2.875-7.56-8.622-14.809
			l-29.149-36.646l-4.687,3.937v34.679c0,6.623,0.375,10.747,1.124,12.371c0.75,1.626,2.188,3.017,4.312,4.171
			c2.124,1.157,5.531,1.734,10.218,1.734v3.468h-64.108v-3.468h4.217c3.688,0,6.655-0.656,8.905-1.969
			c1.623-0.874,2.873-2.374,3.749-4.498c0.686-1.5,1.029-5.437,1.029-11.81v-83.603c0-6.498-0.344-10.56-1.029-12.185
			c-0.688-1.624-2.08-3.047-4.171-4.265c-2.095-1.219-4.922-1.827-8.483-1.827h-4.217v-3.468h63.264v3.468
			c-4.312,0-7.591,0.625-9.84,1.874c-1.626,0.876-2.907,2.344-3.845,4.405c-0.749,1.563-1.124,5.562-1.124,11.997v39.552
			l47.145-38.146c6.561-5.31,9.84-9.56,9.84-12.746c0-2.374-1.343-4.249-4.028-5.624c-1.377-0.687-4.781-1.124-10.218-1.312v-3.468
			h49.582v3.468c-4.438,0.313-7.92,1.109-10.451,2.389c-2.529,1.281-8.358,5.609-17.479,12.982L1569.649,1240.03z"/>
		<path fill="#6FCCDD" d="M1730.416,1315.011v3.468h-66.452v-3.468h4.219c3.685,0,6.653-0.656,8.902-1.969
			c1.625-0.874,2.874-2.374,3.749-4.498c0.688-1.5,1.032-5.437,1.032-11.81v-83.603c0-6.498-0.344-10.56-1.032-12.185
			c-0.688-1.624-2.077-3.047-4.17-4.265c-2.096-1.219-4.92-1.827-8.481-1.827h-4.219v-3.468h66.452v3.468h-4.219
			c-3.688,0-6.653,0.656-8.903,1.968c-1.625,0.876-2.906,2.375-3.844,4.499c-0.688,1.5-1.03,5.436-1.03,11.81v83.603
			c0,6.499,0.357,10.56,1.079,12.184c0.717,1.626,2.121,3.046,4.216,4.266c2.094,1.217,4.921,1.827,8.482,1.827H1730.416z"/>
		<path fill="#6FCCDD" d="M1847.411,1275.178l34.49-83.79h51.736v3.468h-4.124c-3.749,0-6.748,0.656-8.997,1.968
			c-1.563,0.876-2.812,2.344-3.749,4.405c-0.688,1.5-1.032,5.405-1.032,11.716v83.79c0,6.499,0.344,10.56,1.032,12.184
			c0.686,1.626,2.093,3.046,4.217,4.266c2.123,1.217,4.968,1.827,8.529,1.827h4.124v3.468h-66.357v-3.468h4.124
			c3.749,0,6.748-0.656,8.998-1.969c1.561-0.874,2.812-2.374,3.748-4.498c0.687-1.5,1.03-5.437,1.03-11.81v-94.193l-48.737,115.938
			h-2.249l-49.486-115.095v89.508c0,6.249,0.156,10.091,0.47,11.528c0.812,3.125,2.578,5.67,5.295,7.639
			c2.719,1.967,6.981,2.952,12.793,2.952v3.468h-43.488v-3.468h1.312c2.812,0.063,5.437-0.39,7.873-1.359
			c2.437-0.968,4.28-2.264,5.531-3.89c1.248-1.624,2.216-3.904,2.904-6.842c0.125-0.687,0.188-3.873,0.188-9.56v-80.416
			c0-6.436-0.345-10.451-1.03-12.044c-0.688-1.594-2.095-3-4.219-4.218c-2.124-1.219-4.966-1.827-8.527-1.827h-4.031v-3.468h51.923
			L1847.411,1275.178z"/>
		<path fill="#6FCCDD" d="M2038.074,1282.301h-44.896l-5.342,12.371c-1.751,4.124-2.624,7.53-2.624,10.217
			c0,3.562,1.436,6.186,4.312,7.873c1.687,1,5.842,1.749,12.464,2.249v3.468h-42.269v-3.468c4.561-0.688,8.31-2.577,11.247-5.671
			c2.936-3.092,6.561-9.48,10.872-19.166l45.455-101.411h1.782l45.83,104.223c4.373,9.873,7.968,16.09,10.779,18.651
			c2.124,1.938,5.123,3.062,8.998,3.374v3.468H2033.2v-3.468h2.529c4.936,0,8.404-0.688,10.404-2.063
			c1.374-0.999,2.063-2.437,2.063-4.311c0-1.125-0.188-2.28-0.563-3.468c-0.126-0.563-1.063-2.906-2.812-7.029L2038.074,1282.301z
			 M2034.887,1275.365l-18.932-43.77l-19.495,43.77H2034.887z"/>
	</g>
	<g>
		<path fill="#6FCCDD" d="M1054.963,1358.964v21.721h-1.713c-0.556-4.168-1.552-7.487-2.987-9.957s-3.481-4.431-6.136-5.882
			s-5.403-2.177-8.244-2.177c-3.211,0-5.866,0.98-7.965,2.94c-2.099,1.961-3.149,4.191-3.149,6.692c0,1.914,0.664,3.659,1.991,5.233
			c1.914,2.315,6.468,5.402,13.662,9.262c5.866,3.149,9.872,5.565,12.018,7.248c2.146,1.683,3.797,3.666,4.955,5.951
			c1.158,2.284,1.737,4.678,1.737,7.178c0,4.755-1.845,8.854-5.534,12.296s-8.437,5.164-14.241,5.164
			c-1.822,0-3.535-0.14-5.141-0.417c-0.957-0.154-2.941-0.718-5.951-1.69c-3.01-0.973-4.917-1.459-5.719-1.459
			c-0.772,0-1.381,0.231-1.829,0.694c-0.448,0.464-0.78,1.421-0.996,2.872h-1.714v-21.535h1.714
			c0.803,4.508,1.883,7.881,3.242,10.119c1.358,2.238,3.435,4.099,6.229,5.58c2.794,1.482,5.858,2.224,9.193,2.224
			c3.859,0,6.908-1.02,9.146-3.057c2.238-2.038,3.357-4.446,3.357-7.225c0-1.544-0.424-3.103-1.273-4.678
			c-0.849-1.574-2.169-3.041-3.959-4.399c-1.204-0.926-4.492-2.895-9.864-5.904c-5.372-3.011-9.193-5.411-11.462-7.202
			c-2.269-1.79-3.99-3.767-5.164-5.928s-1.76-4.538-1.76-7.132c0-4.507,1.729-8.39,5.187-11.647
			c3.458-3.257,7.857-4.886,13.199-4.886c3.334,0,6.87,0.818,10.605,2.455c1.729,0.771,2.949,1.157,3.659,1.157
			c0.803,0,1.459-0.239,1.968-0.718s0.918-1.443,1.228-2.895H1054.963z"/>
		<path fill="#6FCCDD" d="M1145.466,1360.4h21.905v1.713h-1.204c-0.803,0-1.976,0.355-3.52,1.065
			c-1.543,0.71-2.948,1.729-4.214,3.057c-1.266,1.327-2.825,3.488-4.678,6.483l-15.144,23.851v15.745
			c0,3.859,0.432,6.268,1.297,7.225c1.173,1.297,3.025,1.945,5.557,1.945h2.038v1.714h-26.675v-1.714h2.223
			c2.655,0,4.538-0.803,5.65-2.408c0.679-0.988,1.019-3.242,1.019-6.762v-14.865l-17.228-26.305
			c-2.038-3.088-3.419-5.018-4.145-5.789c-0.726-0.772-2.23-1.698-4.515-2.779c-0.618-0.309-1.513-0.463-2.686-0.463v-1.713h26.86
			v1.713h-1.389c-1.451,0-2.787,0.34-4.006,1.02c-1.22,0.679-1.83,1.697-1.83,3.056c0,1.112,0.942,3.118,2.825,6.021l13.106,20.238
			l12.319-19.358c1.853-2.901,2.778-5.063,2.778-6.483c0-0.864-0.224-1.637-0.671-2.315s-1.088-1.212-1.922-1.598
			s-2.084-0.579-3.751-0.579V1360.4z"/>
		<path fill="#6FCCDD" d="M1248.288,1358.964v21.721h-1.714c-0.556-4.168-1.551-7.487-2.987-9.957s-3.481-4.431-6.136-5.882
			s-5.403-2.177-8.243-2.177c-3.211,0-5.866,0.98-7.966,2.94c-2.1,1.961-3.149,4.191-3.149,6.692c0,1.914,0.664,3.659,1.991,5.233
			c1.914,2.315,6.468,5.402,13.662,9.262c5.866,3.149,9.872,5.565,12.018,7.248c2.146,1.683,3.797,3.666,4.955,5.951
			c1.158,2.284,1.737,4.678,1.737,7.178c0,4.755-1.845,8.854-5.534,12.296s-8.437,5.164-14.241,5.164
			c-1.822,0-3.535-0.14-5.141-0.417c-0.957-0.154-2.941-0.718-5.951-1.69c-3.011-0.973-4.917-1.459-5.72-1.459
			c-0.772,0-1.382,0.231-1.829,0.694c-0.448,0.464-0.78,1.421-0.996,2.872h-1.713v-21.535h1.713
			c0.803,4.508,1.884,7.881,3.242,10.119s3.435,4.099,6.229,5.58c2.794,1.482,5.858,2.224,9.193,2.224
			c3.859,0,6.908-1.02,9.146-3.057c2.238-2.038,3.358-4.446,3.358-7.225c0-1.544-0.425-3.103-1.274-4.678
			c-0.849-1.574-2.169-3.041-3.959-4.399c-1.204-0.926-4.492-2.895-9.864-5.904c-5.372-3.011-9.193-5.411-11.462-7.202
			c-2.27-1.79-3.991-3.767-5.164-5.928c-1.173-2.161-1.76-4.538-1.76-7.132c0-4.507,1.729-8.39,5.187-11.647
			c3.458-3.257,7.857-4.886,13.199-4.886c3.334,0,6.869,0.818,10.605,2.455c1.729,0.771,2.948,1.157,3.658,1.157
			c0.803,0,1.459-0.239,1.968-0.718s0.918-1.443,1.227-2.895H1248.288z"/>
		<path fill="#6FCCDD" d="M1348.47,1360.4l0.695,14.727h-1.76c-0.339-2.594-0.803-4.446-1.389-5.558
			c-0.957-1.79-2.23-3.11-3.821-3.96c-1.59-0.849-3.682-1.273-6.275-1.273h-8.846v47.979c0,3.859,0.417,6.268,1.25,7.225
			c1.173,1.297,2.979,1.945,5.418,1.945h2.177v1.714h-26.629v-1.714h2.223c2.655,0,4.539-0.803,5.65-2.408
			c0.679-0.988,1.019-3.242,1.019-6.762v-47.979h-7.549c-2.933,0-5.017,0.217-6.252,0.648c-1.605,0.587-2.979,1.714-4.122,3.381
			c-1.143,1.667-1.822,3.921-2.038,6.762h-1.76l0.741-14.727H1348.47z"/>
		<path fill="#6FCCDD" d="M1407.39,1363.827v24.822h13.801c3.582,0,5.975-0.54,7.179-1.62c1.604-1.421,2.5-3.922,2.686-7.503h1.714
			v21.858h-1.714c-0.433-3.056-0.864-5.017-1.296-5.881c-0.556-1.081-1.467-1.93-2.732-2.547c-1.267-0.618-3.212-0.927-5.835-0.927
			h-13.801v20.701c0,2.778,0.123,4.469,0.371,5.071c0.247,0.602,0.678,1.08,1.297,1.436c0.618,0.355,1.79,0.532,3.52,0.532h10.652
			c3.549,0,6.128-0.247,7.734-0.741c1.605-0.493,3.149-1.466,4.631-2.917c1.915-1.914,3.875-4.801,5.881-8.66h1.853l-5.418,15.746
			h-48.396v-1.714h2.223c1.482,0,2.887-0.355,4.214-1.065c0.988-0.494,1.659-1.234,2.015-2.223c0.354-0.988,0.532-3.011,0.532-6.066
			v-40.801c0-3.982-0.401-6.437-1.204-7.363c-1.111-1.235-2.964-1.853-5.557-1.853h-2.223v-1.713h48.396l0.694,13.754h-1.806
			c-0.648-3.304-1.367-5.572-2.154-6.808c-0.788-1.235-1.952-2.177-3.496-2.825c-1.235-0.463-3.412-0.694-6.53-0.694H1407.39z"/>
		<path fill="#6FCCDD" d="M1520.353,1423.198l-24.267-52.842v41.958c0,3.859,0.417,6.268,1.25,7.225
			c1.143,1.297,2.949,1.945,5.419,1.945h2.223v1.714h-21.859v-1.714h2.223c2.655,0,4.539-0.803,5.65-2.408
			c0.68-0.988,1.019-3.242,1.019-6.762v-41.031c0-2.779-0.309-4.785-0.926-6.021c-0.432-0.896-1.227-1.645-2.385-2.246
			c-1.158-0.603-3.018-0.903-5.581-0.903v-1.713h17.783l22.786,49.136l22.414-49.136h17.783v1.713h-2.176
			c-2.687,0-4.585,0.803-5.696,2.408c-0.68,0.988-1.02,3.242-1.02,6.762v41.031c0,3.859,0.433,6.268,1.297,7.225
			c1.143,1.297,2.948,1.945,5.419,1.945h2.176v1.714h-26.675v-1.714h2.223c2.687,0,4.569-0.803,5.65-2.408
			c0.679-0.988,1.019-3.242,1.019-6.762v-41.958l-24.221,52.842H1520.353z"/>
		<path fill="#6FCCDD" d="M1645.406,1358.964v21.721h-1.714c-0.556-4.168-1.553-7.487-2.988-9.957s-3.479-4.431-6.135-5.882
			s-5.403-2.177-8.243-2.177c-3.211,0-5.866,0.98-7.966,2.94c-2.1,1.961-3.149,4.191-3.149,6.692c0,1.914,0.664,3.659,1.991,5.233
			c1.915,2.315,6.469,5.402,13.662,9.262c5.866,3.149,9.871,5.565,12.017,7.248s3.798,3.666,4.955,5.951
			c1.158,2.284,1.738,4.678,1.738,7.178c0,4.755-1.846,8.854-5.535,12.296s-8.436,5.164-14.24,5.164
			c-1.821,0-3.535-0.14-5.141-0.417c-0.957-0.154-2.941-0.718-5.951-1.69c-3.011-0.973-4.916-1.459-5.719-1.459
			c-0.771,0-1.383,0.231-1.83,0.694c-0.448,0.464-0.779,1.421-0.995,2.872h-1.714v-21.535h1.714
			c0.803,4.508,1.884,7.881,3.242,10.119s3.434,4.099,6.228,5.58c2.794,1.482,5.859,2.224,9.193,2.224
			c3.859,0,6.907-1.02,9.146-3.057c2.238-2.038,3.359-4.446,3.359-7.225c0-1.544-0.426-3.103-1.275-4.678
			c-0.849-1.574-2.167-3.041-3.958-4.399c-1.204-0.926-4.492-2.895-9.864-5.904c-5.372-3.011-9.194-5.411-11.463-7.202
			c-2.27-1.79-3.989-3.767-5.163-5.928c-1.173-2.161-1.76-4.538-1.76-7.132c0-4.507,1.729-8.39,5.187-11.647
			c3.458-3.257,7.857-4.886,13.199-4.886c3.334,0,6.869,0.818,10.605,2.455c1.729,0.771,2.948,1.157,3.658,1.157
			c0.803,0,1.458-0.239,1.967-0.718c0.51-0.479,0.92-1.443,1.229-2.895H1645.406z"/>
		<path fill="#6FCCDD" d="M1779.73,1421.484v1.714h-26.907v-1.714h2.224c2.593,0,4.477-0.757,5.649-2.27
			c0.741-0.988,1.111-3.365,1.111-7.132v-40.568c0-3.18-0.2-5.279-0.602-6.298c-0.309-0.772-0.941-1.437-1.899-1.992
			c-1.357-0.74-2.778-1.111-4.26-1.111h-2.224v-1.713h26.907v1.713h-2.27c-2.563,0-4.43,0.757-5.604,2.27
			c-0.771,0.988-1.158,3.365-1.158,7.132v40.568c0,3.181,0.201,5.279,0.603,6.299c0.309,0.771,0.957,1.436,1.945,1.991
			c1.327,0.74,2.732,1.111,4.214,1.111H1779.73z"/>
		<path fill="#6FCCDD" d="M1816.837,1360.4h17.042l38.393,47.098v-36.215c0-3.859-0.433-6.268-1.297-7.225
			c-1.143-1.297-2.949-1.945-5.419-1.945h-2.177v-1.713h21.859v1.713h-2.223c-2.655,0-4.539,0.803-5.65,2.408
			c-0.68,0.988-1.019,3.242-1.019,6.762v52.934h-1.667l-41.402-50.572v38.67c0,3.859,0.416,6.268,1.25,7.225
			c1.174,1.297,2.979,1.945,5.419,1.945h2.223v1.714h-21.859v-1.714h2.177c2.687,0,4.585-0.803,5.696-2.408
			c0.68-0.988,1.019-3.242,1.019-6.762v-43.671c-1.821-2.131-3.204-3.535-4.146-4.215c-0.941-0.679-2.322-1.312-4.144-1.898
			c-0.896-0.278-2.254-0.417-4.075-0.417V1360.4z"/>
		<path fill="#6FCCDD" d="M1979.724,1358.964l1.437,21.35h-1.437c-1.914-6.391-4.646-10.991-8.196-13.801
			c-3.551-2.81-7.812-4.214-12.782-4.214c-4.168,0-7.935,1.058-11.3,3.172c-3.365,2.115-6.014,5.488-7.943,10.119
			s-2.894,10.39-2.894,17.274c0,5.681,0.911,10.604,2.732,14.773c1.821,4.168,4.561,7.363,8.219,9.586
			c3.659,2.223,7.836,3.335,12.528,3.335c4.075,0,7.672-0.873,10.791-2.617c3.118-1.744,6.545-5.21,10.281-10.396l1.436,0.926
			c-3.149,5.588-6.824,9.68-11.022,12.272c-4.199,2.594-9.185,3.891-14.958,3.891c-10.405,0-18.463-3.859-24.175-11.578
			c-4.261-5.742-6.392-12.504-6.392-20.284c0-6.268,1.405-12.025,4.215-17.274c2.81-5.248,6.676-9.315,11.6-12.203
			c4.925-2.887,10.306-4.33,16.141-4.33c4.539,0,9.016,1.112,13.431,3.335c1.296,0.679,2.223,1.019,2.778,1.019
			c0.834,0,1.559-0.293,2.177-0.88c0.803-0.834,1.374-1.991,1.714-3.474H1979.724z"/>
	</g>
	<g>
		<path fill="#6FCCDD" d="M1554.683,637.882c3.682,10.354,7.052,20.843,9.643,31.531c3.867,15.055,7.078,30.285,9.428,45.646
			c4.136,24.644,7.384,49.421,10.876,74.145c2.029,16.087,4.231,32.149,6.285,48.225c0.149,3.048,0.833,6.069,1.116,9.117
			c-6.579,7.105-6.204,19.713,1.611,25.744c7.411,6.137,19.605,3.331,24.064-5.037c5.157-8.258,2.081-20.131-6.605-24.616
			c-0.418-2.605-0.406-5.277-1.076-7.815c-1.866-17.472-4.201-34.916-6.525-52.333c-2.847-22.171-6.03-44.304-9.521-66.381
			l-0.403,0.134c-1.772-15.309-5.747-30.378-9.065-45.444l-0.229,0.026c-2.441-11.669-5.759-23.152-9.331-34.526
			c-4.446-13.792-9.469-27.544-16.841-40.073c-4.849-7.924-10.838-16.062-20.051-19.057c-9.736-3.719-20.291-1.074-29.639,2.458
			c7.67,1.64,14.424,6.069,19.809,11.669C1540.648,604.431,1548.331,621.162,1554.683,637.882z M1601.243,852.119
			c5.157-3.142,12.138,1.799,11.535,7.641c0.349,6.232-7.602,11.307-12.771,7.171
			C1594.77,863.481,1595.695,854.792,1601.243,852.119z"/>
		<path fill="#6FCCDD" d="M1578.546,603.76c6.354,13.173,11.041,27.072,15.083,41.106c3.303,11.32,5.866,22.829,8.607,34.298
			c1.49,8.877,3.587,17.673,4.886,26.603c2.23,12.06,3.775,24.228,5.575,36.367c0.645,7.494,1.92,15,2.512,22.535
			c1.33,12.879,2.847,25.771,3.304,38.689l-1.087,0.457c-4.635,6.795-4.272,16.868,1.678,22.777
			c6.109,6.392,17.271,5.881,23.099-0.619c7.761-7.694,6.095-23.259-4.446-27.461c-1.061-10.892-2.135-21.784-3.491-32.648
			c-0.981-6.902-1.329-14.006-2.847-20.788c-1.275-11.709-2.929-23.568-5.386-35.011c-0.711-7.52-2.592-14.892-3.827-22.333
			l-0.215-0.133c-2.149-11.926-5.063-23.716-8.018-35.467h-0.214c-3.989-16.155-9.387-32.002-16.345-47.123l-0.268-0.013
			c-4.189-8.852-9.346-17.916-17.941-23.153c-5.492-3.546-12.315-2.203-18.398-1.626
			C1568.462,586.556,1574.088,594.962,1578.546,603.76z M1628.073,806.727c5.063-2.604,11.495,1.64,11.402,7.239
			c0.631,6.405-7.373,11.833-12.759,7.723C1621.305,818.184,1622.354,809.348,1628.073,806.727z"/>
		<path fill="#6FCCDD" d="M1334.86,1034.112c-9.346-0.255-18.734-2.296-27.02-6.728c-4.739,4.769-8.997,9.978-13.187,15.229
			c12.637,7.803,27.718,10.636,42.409,10.825c6.541,6.619,18.277,6.565,24.805-0.042c6.982-6.109,6.835-18.41-0.645-24.063
			C1353.258,1022.604,1340.111,1025.276,1334.86,1034.112z M1347.175,1034.689c6.083-3.531,14.572,3.572,11.361,10.087
			c-2.135,5.95-11.08,7.492-14.867,2.322C1340.231,1043.083,1342.434,1036.544,1347.175,1034.689z"/>
		<path fill="#6FCCDD" d="M1438.266,674.113c10.516-2.604,15.713-15.751,10.822-25.192c1.936-3.209,4.137-6.244,6.354-9.293
			c7.533-9.87,16.008-19.485,26.845-25.824c5.626-3.357,13.309-5.144,18.948-0.833c9.428,6.835,14.491,17.861,18.978,28.255
			c2.913,7.307,5.504,14.732,7.627,22.306c3.452,11.831,6.003,23.89,8.553,35.937c4.822,27.986,9.079,56.081,13.122,84.2
			c1.744,12.973,3.92,25.879,5.357,38.893l-0.94,0.026c-4.096,6.904-3.814,16.748,2.324,22.387
			c6.217,6.46,17.578,5.586,23.204-1.222c7.185-7.615,5.521-21.07-3.275-26.764l-0.698,0.389c-0.442-0.457-1.315-1.383-1.746-1.84
			c-1.84-12.193-3.586-24.414-5.183-36.634l-0.336,0.147c-3.317-26.295-7.562-52.508-11.926-78.669l-0.188,0.013
			c-1.895-12.246-4.809-24.319-7.789-36.339h-0.256c-1.544-7.319-3.976-14.437-6.326-21.541h-0.134
			c-5.922-16.679-13.402-34.017-27.57-45.365c-9.615-7.775-23.527-9.105-34.58-3.719c-17.069,7.83-27.758,23.944-39.373,37.923
			c-2.285,2.888-4.553,5.789-6.743,8.744c-8.662,1.194-15.766,9.253-15.122,18.102
			C1417.585,668.393,1428.408,677.271,1438.266,674.113z M1564.863,825.14c5.196-2.888,11.724,2.109,11.333,7.762
			c0.203,6.056-7.372,11.227-12.596,7.333C1558.055,836.837,1558.994,827.665,1564.863,825.14z M1430.557,650.681
			c4.822-3.505,11.858,0.658,12.126,6.298c1.007,6.15-6.379,12.222-12.005,8.702C1424.972,662.753,1425.118,653.81,1430.557,650.681
			z"/>
		<path fill="#6FCCDD" d="M1492.438,649.23c4.646-4.7,10.729-8.097,15.43-12.422c-3.008-5.774-6.539-11.482-11.575-15.713
			c-9.226,6.434-17.848,13.752-25.275,22.226c-8.595,9.899-15.887,20.897-21.943,32.514c-1.825,3.612-3.423,7.331-5.103,11.011
			c-7.427,2.633-12.623,10.407-11.765,18.306c0.081,10.42,11.818,18.598,21.555,14.436c10.367-3.627,14.396-17.539,8.299-26.47
			c1.128-2.94,2.806-5.68,3.8-8.661C1472.738,671.375,1481.534,659.263,1492.438,649.23z M1443.394,710.803
			c-5.169-3.68-3.839-12.274,1.814-14.732c4.754-2.591,10.81,1.438,11.24,6.58C1457.697,709.365,1448.888,715.73,1443.394,710.803z"
			/>
		<path fill="#6FCCDD" d="M1520.762,670.448c-2.177-6.364-3.895-12.933-6.997-18.921c-12.677,7.278-22.641,18.493-30.095,30.954
			c-2.712,1.627-5.949,2.539-8.031,5.09c-4.874,4.728-5.95,12.113-4.164,18.465c2.109,5.331,6.795,9.831,12.598,10.663
			c8.045,1.423,16.357-4.163,18.492-11.939c1.584-4.672,0.845-9.789-1.197-14.18
			C1506.299,682.575,1512.825,675.551,1520.762,670.448z M1486.639,708.789c-5.279,0.363-9.2-5.316-8.221-10.232
			c1.143-3.103,3.331-6.151,6.809-6.77c3.963-1.046,7.791,1.88,9.16,5.479C1496.091,702.41,1492.226,708.693,1486.639,708.789z"/>
		<path fill="#6FCCDD" d="M1710.033,961.206c3.061,2.135,6.848,2.268,10.395,2.859c15.066,19.192,24.091,43.042,25.502,67.402
			c6.539,0.645,13.55,0.35,19.687-2.188c-2.042-28.443-13.858-55.477-30.834-78.131c1.262-7.132-1.987-14.786-8.34-18.413
			c-6.956-4.485-17.296-2.994-22.063,3.976C1698.738,944.472,1701.721,956.558,1710.033,961.206z M1715.472,938.376
			c6.687-1.935,13.536,6.284,9.843,12.408c-2.485,5.21-10.436,5.344-13.723,0.9C1707.669,947.506,1709.67,939.599,1715.472,938.376z
			"/>
		<path fill="#6FCCDD" d="M1759.722,1074.495c-22.508,0.658-44.868-3.317-66.488-9.307c-15.041-3.962-29.813-8.891-44.385-14.315
			c-15.807-5.897-31.464-12.168-47.097-18.491c-16.504-6.689-33.009-13.391-49.418-20.279c-9.951-4.137-19.916-8.206-29.787-12.477
			c-3.102-9.668-14.611-15.349-24.05-11.2c-3.357,1.92-6.394,4.66-7.803,8.34c-3.667,8.689,1.316,19.285,9.938,22.708
			c5.087,1.893,10.958,1.531,15.604-1.343c12.798,5.357,25.528,10.864,38.327,16.222c17.739,7.321,35.425,14.76,53.287,21.783
			c15.35,6.097,30.699,12.194,46.41,17.297c15.001,4.9,30.096,9.494,45.379,13.402c14.53,3.506,29.234,6.891,44.143,8.018
			c12.342,0.817,26.199,1.772,36.902-5.587c9.254-6.324,13.456-17.591,14.53-28.348
			C1786.271,1070.842,1772.426,1073.434,1759.722,1074.495z M1512.984,1005.871c-0.63,4.753-5.828,7.386-10.259,6.393
			c-3.397-1.64-6.566-4.741-6.365-8.782c-0.201-3.331,2.256-5.883,4.901-7.495C1507.291,993.932,1514.247,999.492,1512.984,1005.871
			z"/>
		<path fill="#6FCCDD" d="M1539.562,1076.724c-14.544,4.283-31.008-5.332-35.13-19.741c-2.808-8.326-1.022-17.605,3.827-24.789
			c-9.306,0.321-18.572-4.111-24.186-11.523c-5.184-6.538-6.929-15.146-5.855-23.313c1.371-2.929,2.082-6.178,3.842-8.958
			c5.961-9.535,17.712-14.463,28.724-12.421c2.941,0.979,5.828,2.121,8.769,3.114c2.003-10.327,10.422-19.057,20.775-21.098
			c10.058-2.47,20.694,1.72,27.679,9.052c1.273,1.545,2.188,3.653,4.215,4.377c8.771,3.547,17.486,7.24,26.323,10.582
			c9.09,3.56,18.074,7.374,27.194,10.852c10.314,3.84,20.397,8.447,30.899,11.71c13.39-20.627,22.789-43.9,26.886-68.167
			c3.303-18.868,3.531-38.273,0.511-57.182c-3.25-24.172-12.235-47.647-25.247-68.287c-0.283,2.752-0.779,5.519-0.552,8.312
			c-2.646,10.61-10.489,20.023-21.325,22.763c-3.102,0.39-6.23,0.658-9.348,0.738c5.063,8.957,5.507,20.454,0.457,29.518
			c-3.8,7.386-11.039,12.409-18.922,14.652c-7.588,0.71-15.456-0.336-21.835-4.769c-6.191-5.829-11.509-13.267-11.363-22.171
			c-2.51,0.269-5.007,0.659-7.465,1.168c-5.09-0.63-10.488-0.764-14.8-3.893c-0.391-0.317-0.784-0.534-1.178-0.69
			c-0.025-0.011-0.044-0.025-0.069-0.035c-8.984-3.726-13.726-25.838-13.726-25.838c1.034-4.324,3.465-8.286,4.07-12.678
			c-0.619-4.981-0.255-10.352-2.325-15c-0.778-5.466-0.603-11.415-2.31-16.572c-1.194-9.654-2.336-19.338-4.096-28.912
			c-1.343-8.488-2.243-17.07-3.854-25.516c-0.175-0.873-0.511-2.593-0.686-3.464c-17.244-2.324-34.781-1.679-51.945,1.007
			l0.068,0.429c-28.256,4.043-55.221,16.169-78.065,33.225l0.027,0.135c-8.366,6.297-16.194,13.334-23.273,21.057
			c-21.647,23.151-36.795,52.238-43.523,83.206c5.33-3.866,10.663-7.735,15.953-11.643c2.216-11.643,11.992-20.801,23.475-23.151
			c12.489-1.853,26.092,4.19,31.262,16.088c1.599-2.458,3.332-4.834,5.251-7.063c7.105-6.46,16.814-9.374,26.335-8.232
			c5.64,2.202,11.615,4.337,15.738,9.119c6.688,7.977,8.541,19.029,5.022,28.805c-2.552,5.602-6.741,10.194-11.776,13.672
			c6.324,5.667,8.97,14.061,9.413,22.187c-1.369,9.479-6.848,18.074-15.215,22.868c-4.016,2.324-8.596,3.021-13.081,3.842
			c-2.538,1.611-4.767,3.652-7.171,5.464c-6.246,5.051-12.664,9.899-18.976,14.88c-16.022,12.719-32.069,25.422-47.982,38.273
			c12.487,22.293,29.732,41.927,50.292,57.101c39.643,29.587,91.895,41.188,140.375,31.545c2.35-0.672,5.09-0.508,7.078-2.148
			C1545.713,1078.361,1542.839,1075.436,1539.562,1076.724z"/>
		<path fill="#6FCCDD" d="M1281.668,946.271c14.006-12.099,28.361-23.822,43.133-34.981c12.476-9.468,25.113-18.735,38.032-27.611
			l-0.027-0.094c3.72-2.054,6.863-5.493,10.838-6.823c7.708,1.128,15.954-2.887,19.163-10.098c4.11-8.272-0.779-19.137-9.588-21.728
			c-11.038-4.164-24.414,5.169-23.473,17.162c-5.505,4.325-11.47,8.044-16.868,12.503c-14.932,10.567-29.369,21.862-43.604,33.345
			c-12.69,10.179-25.059,20.747-37.105,31.692c-21.084,19.97-42.786,40.395-56.618,66.301c-2.283,5.115-3.839,10.676-3.867,16.315
			c0.591,5.642,3.746,11.215,7.949,14.88c1.746-9.521,6.11-18.345,11.376-26.401
			C1237.916,986.399,1259.576,965.851,1281.668,946.271z M1374.074,852.051c5.559-2.887,13.081,2.741,11.454,8.931
			c-1.073,6.447-10.313,9.092-14.665,4.243C1366.607,861.331,1368.835,853.824,1374.074,852.051z"/>
		<path fill="#6FCCDD" d="M1765.079,974.607c6.501,12.329,11.563,25.608,13.51,39.456c0.765,7.493,0.927,16.773-5.507,21.983
			c-7.908,5.492-18.155,5.506-27.408,5.129c-10.447-0.857-20.787-2.699-30.968-5.156c-18.8-4.593-37.093-11.012-55.263-17.632
			l0.015-0.175c-19.446-7.253-38.636-15.122-58.015-22.521l-0.054-0.12c-12.302-5.049-24.695-9.884-37.026-14.893
			c-1.798-0.417-2.307-2.298-3.208-3.613c-4.513-7.452-15.054-10.569-22.735-6.244c-7.251,3.866-10.1,13.495-6.634,20.855
			c3.921,9.964,17.767,14.316,26.307,7.44c15.874,6.352,31.708,12.798,47.621,19.069c18.426,7.051,36.647,14.906,55.327,21.099
			l-0.549,0.199c17.739,6.354,35.655,12.342,54.039,16.586c7.17,1.343,14.29,3.235,21.594,3.653
			c15.887,2.108,33.642,2.646,47.715-6.299c10.327-6.621,15.055-19.283,14.422-31.183c-1.021-20.104-10.783-38.192-17.471-56.792
			c2.592-7.669,0.297-16.909-6.755-21.366c-8.204-6.271-21.903-2.701-24.977,7.451
			C1745.083,962.119,1753.987,974.3,1765.079,974.607z M1554.441,988.144c-1.235,5.829-9.253,7.695-13.402,3.773
			c-4.378-3.37-4.136-11.159,1.021-13.644C1548.156,974.593,1556.441,981.443,1554.441,988.144z M1760.836,949.871
			c6.633-3.385,14.839,4.982,11.28,11.55c-2.31,5.519-10.475,5.921-13.887,1.249
			C1754.564,958.856,1755.895,951.871,1760.836,949.871z"/>
		<path fill="#6FCCDD" d="M1702.793,999.063c4.729,8.204,7.32,17.512,7.978,26.939c6.488,1.437,13.001,2.726,19.595,3.585
			c0.43-14.879-4.675-29.343-11.845-42.181c2.686-9.186-3.774-19.42-12.973-21.527c-8.876-2.701-19.231,3.907-19.97,13.268
			C1683.953,989.272,1692.749,998.873,1702.793,999.063z M1697.759,974.057c6.902-4.069,15.713,4.901,11.628,11.738
			c-2.657,5.21-10.648,5.277-13.897,0.657C1692.334,982.745,1693.192,976.232,1697.759,974.057z"/>
		<path fill="#6FCCDD" d="M1235.068,1061.817c3.908-14.745,12.301-27.8,21.366-39.899c7.803-10.045,16.29-19.537,25.248-28.577
			c7.333-7.291,14.959-14.289,22.681-21.163c16.464-14.277,33.627-27.706,50.763-41.174c18.626-14.478,37.28-28.941,56.054-43.242
			c4.565-3.373,8.97-6.943,13.617-10.208c11.698,3.022,24.348-8.527,20.883-20.519c-2.806-12.154-19.795-15.766-28.322-7.359
			c-4.244,3.277-5.251,8.716-6.086,13.563c-7.748,5.991-15.697,11.711-23.406,17.728c-18.049,13.617-36.003,27.341-53.73,41.375
			c-17.524,13.792-34.97,27.786-51.057,43.255l-0.188-0.04c-8.85,8.515-17.848,16.894-26.134,25.945h-0.121
			c-6.848,7.079-13.347,14.491-19.444,22.225c-7.87,10.395-15.753,21.393-18.868,34.259c-3.062,13.992,5.6,27.638,16.974,35.104
			C1232.785,1076.255,1233.215,1068.748,1235.068,1061.817z M1426.676,852.441c5.036-2.297,11.817,1.638,11.536,7.374
			c0.215,6.969-9.347,11.173-14.355,6.297C1419.088,862.365,1421.128,854.267,1426.676,852.441z"/>
		<path fill="#6FCCDD" d="M1382.063,1059.628c-8.594-5.652-20.896-1.731-25.488,7.239c-24.266,3.357-49.608-0.604-71.403-11.912
			c-3.396,5.692-6.861,11.563-7.95,18.196c25.529,12.597,54.925,15.968,82.979,12.448c7.184,6.434,19.271,5.453,25.354-1.973
			C1391.948,1076.698,1390.336,1064.328,1382.063,1059.628z M1367.318,1079.732c-5.09-3.693-3.062-12.342,2.793-14.034
			c5.116-2.028,11.643,1.935,11.348,7.628C1381.419,1080.056,1372.396,1084.244,1367.318,1079.732z"/>
		<path fill="#6FCCDD" d="M1340.165,1092.193c-6.405-0.416-11.939,3.534-15.82,8.26c-14.705-1.303-29.759-3.168-43.214-9.669
			c-5.721-2.792-11.509-6.971-13.296-13.415c-0.805-4.42,0.35-8.877,1.814-13.027c3.961-10.273,10.649-19.217,17.632-27.638
			c8.273-9.709,17.324-18.72,26.671-27.409c9.186-8.3,18.543-16.423,28.267-24.092c22.575-18.519,45.594-36.501,68.53-54.577
			c3.8-2.592,7.065-6.03,11.079-8.245c9.388,1.101,19.231-6.084,19.716-15.807c0.913-9.266-7.696-17.391-16.773-17.043
			c-10.18-0.293-18.883,9.293-17.754,19.421c-6.405,4.873-12.717,9.87-19.043,14.839c-23.567,18.652-47.311,37.091-70.327,56.416
			c-10.33,8.594-20.374,17.551-29.774,27.154c-7.332,7.146-14.261,14.721-20.546,22.804c-9.642,12.435-18.693,26.469-20.116,42.544
			c-0.914,13.269,7.238,25.729,18.801,31.76c18.063,9.803,39.158,10.46,59.021,13.753c3.45,3.96,8.366,6.969,13.806,6.753
			c9.171,0.484,18.075-7.452,17.927-16.773C1357.139,1099.393,1348.84,1091.736,1340.165,1092.193z M1421.264,897.833
			c5.144-2.942,12.53,1.463,12.086,7.453c-0.148,6.89-9.576,10.677-14.544,5.95C1414.335,907.542,1416.027,899.875,1421.264,897.833
			z M1334.068,1114.232c-4.552-3.707-2.672-11.43,2.579-13.418c5.171-2.522,12.274,1.385,11.964,7.348
			C1348.625,1115.118,1339.037,1119.229,1334.068,1114.232z"/>
		<path fill="#6FCCDD" d="M1707.172,1104.496c-21.58-4.889-42.732-11.429-63.575-18.828c-13.938-5.076-27.757-10.488-41.468-16.155
			c-9.039-3.922-18.116-7.734-27.073-11.817c-9.227-4.299-18.561-8.367-27.611-13c-3.208-9.373-14.519-14.854-23.743-10.798
			c-4.218,2.243-7.774,6.098-8.676,10.906c-2.162,8.258,3.184,17.471,11.121,20.196c5.036,2.121,10.917,1.33,15.482-1.571
			c11.497,5.371,23.14,10.436,34.81,15.417c9.735,4.097,19.498,8.111,29.328,11.992c12.074,4.674,24.201,9.227,36.475,13.403
			c20.561,6.995,41.429,13.2,62.742,17.497c10.839,1.854,21.741,3.68,32.781,3.465c8.258,0.188,17.176-1.262,23.742-6.634
			c3.409-3.532,5.467-8.178,7.131-12.73C1748.709,1112.956,1727.264,1108.43,1707.172,1104.496z M1535.318,1057.145
			c-4.459,2.203-10.286,0.322-12.262-4.312c-2.216-4.016,0.056-8.85,3.774-10.986c4.432-1.543,9.816,0.551,11.522,5.037
			C1539.844,1050.618,1538.406,1054.74,1535.318,1057.145z"/>
	</g>
</g>
</svg>
